# xmcd
#
# Track frame offsets:
#	183
#	22528
#	40073
#	63578
#	84168
#	103320
#	121400
#	138608
#
# Disc length: 2088 seconds
#
# Revision: 1
# Processed by: cddbd v1.5.1PL0 Copyright (c) Steve Scherf et al.
# Submitted via: dBpowerAMP V4.0
#
DISCID=61082608
DTITLE=Simon F - Never Never Land
DYEAR=1987
DGENRE=Rock
TTITLE0=New York Girl
TTITLE1=Prisoner of love
TTITLE2=America dream
TTITLE3=Deauville beach
TTITLE4=Exploitation
TTITLE5=Baby's in black (1986)
TTITLE6=Breaking the law
TTITLE7=Love bomb
EXTD=07559-25619-25
EXTT0=
EXTT1=
EXTT2=
EXTT3=
EXTT4=
EXTT5=
EXTT6=
EXTT7=
PLAYORDER=
